<svg width="171.000000" height="158.000000" viewBox="0 0 171 158" fill="none" xmlns="http://www.w3.org/2000/svg" xmlns:xlink="http://www.w3.org/1999/xlink">
	<desc>
			Created with Pixso.
	</desc>
	<defs/>
	<path id="Vector" d="M22.49 66.08C21.3 66.08 20.16 66.56 19.32 67.4C18.47 68.25 18 69.39 17.99 70.58L17.99 78.93C17.9 80.06 17.39 81.11 16.56 81.88C15.72 82.65 14.63 83.08 13.5 83.08C12.36 83.08 11.27 82.65 10.44 81.88C9.61 81.11 9.1 80.06 9.01 78.93L9.01 79.48C9.01 78.29 8.53 77.14 7.69 76.3C6.84 75.45 5.7 74.98 4.5 74.98C3.31 74.98 2.16 75.45 1.31 76.3C0.47 77.14 0 78.29 0 79.48L0 153.49C0 154.69 0.47 155.83 1.31 156.67C2.16 157.52 3.31 158 4.5 158C5.7 158 6.84 157.52 7.69 156.67C8.53 155.83 9.01 154.69 9.01 153.49L9.01 130.02C8.96 129.4 9.04 128.77 9.24 128.19C9.44 127.6 9.77 127.06 10.19 126.6C10.61 126.15 11.12 125.78 11.69 125.54C12.26 125.29 12.88 125.16 13.5 125.16C14.12 125.16 14.73 125.29 15.3 125.54C15.87 125.78 16.38 126.15 16.81 126.6C17.23 127.06 17.55 127.6 17.75 128.19C17.96 128.77 18.04 129.4 17.99 130.02L17.99 144.48C17.99 145.67 18.46 146.82 19.31 147.66C20.15 148.51 21.3 148.98 22.49 148.98C23.69 148.98 24.84 148.51 25.68 147.66C26.53 146.82 27 145.67 27 144.48L27 70.53C26.99 69.34 26.5 68.21 25.66 67.38C24.82 66.54 23.68 66.08 22.49 66.08ZM13.51 119.23C12.92 119.23 12.33 119.12 11.78 118.89C11.23 118.67 10.74 118.33 10.32 117.91C9.9 117.5 9.57 117 9.34 116.45C9.12 115.9 9 115.31 9.01 114.72L9.01 94.42C8.96 93.8 9.04 93.17 9.24 92.59C9.44 92 9.77 91.46 10.19 91C10.61 90.55 11.12 90.18 11.69 89.94C12.26 89.69 12.88 89.56 13.5 89.56C14.12 89.56 14.73 89.69 15.3 89.94C15.87 90.18 16.38 90.55 16.81 91C17.23 91.46 17.55 92 17.75 92.59C17.96 93.17 18.04 93.8 17.99 94.42L17.99 114.72C17.99 115.31 17.88 115.9 17.66 116.44C17.43 116.99 17.1 117.49 16.69 117.9C16.27 118.32 15.78 118.66 15.23 118.88C14.69 119.11 14.1 119.23 13.51 119.23Z" fill="#08D9D6" fill-opacity="1.000000" fill-rule="nonzero"/>
	<path id="Vector" d="M58.48 28.81C57.9 28.81 57.31 28.92 56.77 29.15C56.23 29.37 55.73 29.7 55.32 30.12C54.9 30.54 54.57 31.03 54.35 31.57C54.12 32.12 54.01 32.7 54.01 33.29L54.01 92.33C54.01 93.53 53.53 94.67 52.69 95.52C51.84 96.36 50.7 96.84 49.5 96.84C48.31 96.84 47.16 96.36 46.31 95.52C45.47 94.67 45 93.53 45 92.33L45 47.08C45.04 46.46 44.96 45.84 44.76 45.25C44.56 44.66 44.23 44.13 43.81 43.67C43.39 43.21 42.88 42.85 42.31 42.6C41.74 42.35 41.12 42.22 40.5 42.22C39.88 42.22 39.27 42.35 38.7 42.6C38.13 42.85 37.62 43.21 37.19 43.67C36.77 44.13 36.45 44.66 36.25 45.25C36.04 45.84 35.96 46.46 36.01 47.08L36.01 121.09C35.96 121.71 36.04 122.33 36.25 122.92C36.45 123.51 36.77 124.04 37.19 124.5C37.62 124.96 38.13 125.32 38.7 125.57C39.27 125.82 39.88 125.95 40.5 125.95C41.12 125.95 41.74 125.82 42.31 125.57C42.88 125.32 43.39 124.96 43.81 124.5C44.23 124.04 44.56 123.51 44.76 122.92C44.96 122.33 45.04 121.71 45 121.09L45 107.6C45 106.41 45.47 105.26 46.31 104.41C47.16 103.57 48.31 103.09 49.5 103.09C50.7 103.09 51.84 103.57 52.69 104.41C53.53 105.26 54.01 106.41 54.01 107.6L54.01 107.18C54.09 108.31 54.61 109.37 55.44 110.14C56.27 110.91 57.36 111.34 58.5 111.34C59.63 111.34 60.72 110.91 61.56 110.14C62.39 109.37 62.9 108.31 62.99 107.18L62.99 33.15C62.95 31.98 62.46 30.87 61.62 30.06C60.78 29.25 59.65 28.8 58.48 28.81Z" fill="#08D9D6" fill-opacity="1.000000" fill-rule="nonzero"/>
	<path id="Vector" d="M94.47 0C93.28 0 92.13 0.47 91.29 1.31C90.44 2.16 89.97 3.31 89.97 4.5L89.97 16.96C89.97 18.16 89.49 19.3 88.65 20.15C87.8 20.99 86.66 21.47 85.46 21.47C84.27 21.47 83.12 20.99 82.28 20.15C81.43 19.3 80.96 18.16 80.96 16.96L80.96 14.62C80.87 13.49 80.35 12.44 79.52 11.67C78.69 10.9 77.6 10.47 76.46 10.47C75.33 10.47 74.24 10.9 73.41 11.67C72.57 12.44 72.06 13.49 71.97 14.62L71.97 88.63C71.92 89.25 72 89.87 72.21 90.46C72.41 91.05 72.73 91.59 73.16 92.04C73.58 92.5 74.09 92.86 74.66 93.11C75.23 93.36 75.84 93.49 76.46 93.49C77.09 93.49 77.7 93.36 78.27 93.11C78.84 92.86 79.35 92.5 79.77 92.04C80.19 91.59 80.52 91.05 80.72 90.46C80.92 89.87 81 89.25 80.96 88.63L80.96 32.34C80.96 31.15 81.43 30 82.28 29.15C83.12 28.31 84.27 27.83 85.46 27.83C86.66 27.83 87.8 28.31 88.65 29.15C89.49 30 89.97 31.15 89.97 32.34L89.97 78.51C89.97 79.7 90.44 80.85 91.29 81.69C92.13 82.54 93.28 83.01 94.47 83.01C95.67 83.01 96.81 82.54 97.66 81.69C98.5 80.85 98.98 79.7 98.98 78.51L98.98 4.5C98.97 3.31 98.49 2.17 97.65 1.32C96.81 0.48 95.67 0 94.47 0Z" fill="#08D9D6" fill-opacity="1.000000" fill-rule="nonzero"/>
	<path id="Vector" d="M166.45 74.39C165.26 74.4 164.12 74.88 163.28 75.72C162.44 76.57 161.97 77.71 161.97 78.9L161.97 85.32C161.97 86.52 161.5 87.66 160.65 88.51C159.81 89.35 158.66 89.83 157.47 89.83C156.27 89.83 155.13 89.35 154.28 88.51C153.44 87.66 152.96 86.52 152.96 85.32L152.96 67.22C152.96 66.02 152.49 64.88 151.64 64.03C150.8 63.19 149.65 62.71 148.46 62.71C147.26 62.71 146.12 63.19 145.27 64.03C144.42 64.88 143.95 66.02 143.95 67.22L143.95 105.9C143.86 107.03 143.35 108.09 142.52 108.86C141.68 109.63 140.59 110.06 139.46 110.06C138.33 110.06 137.23 109.63 136.4 108.86C135.57 108.09 135.06 107.03 134.97 105.9L134.97 46.72C134.97 45.52 134.49 44.38 133.65 43.53C132.8 42.69 131.66 42.21 130.46 42.21C129.27 42.21 128.12 42.69 127.28 43.53C126.43 44.38 125.96 45.52 125.96 46.72L125.96 88.02C126.01 88.64 125.92 89.26 125.72 89.85C125.52 90.44 125.2 90.98 124.77 91.43C124.35 91.89 123.84 92.25 123.27 92.5C122.7 92.75 122.09 92.88 121.46 92.88C120.84 92.88 120.23 92.75 119.66 92.5C119.09 92.25 118.58 91.89 118.16 91.43C117.73 90.98 117.41 90.44 117.21 89.85C117 89.26 116.92 88.64 116.97 88.02L116.97 29.14C116.97 27.95 116.5 26.8 115.65 25.96C114.81 25.11 113.66 24.64 112.47 24.64C111.27 24.64 110.13 25.11 109.28 25.96C108.44 26.8 107.96 27.95 107.96 29.14L107.96 103.15C107.96 104.35 108.44 105.49 109.28 106.34C110.13 107.18 111.27 107.66 112.47 107.66C113.66 107.66 114.81 107.18 115.65 106.34C116.5 105.49 116.97 104.35 116.97 103.15L116.97 103.4C117.06 102.27 117.57 101.22 118.41 100.45C119.24 99.68 120.33 99.25 121.46 99.25C122.6 99.25 123.69 99.68 124.52 100.45C125.36 101.22 125.87 102.27 125.96 103.4L125.96 120.73C125.96 121.92 126.43 123.07 127.28 123.91C128.12 124.76 129.27 125.23 130.46 125.23C131.66 125.23 132.8 124.76 133.65 123.91C134.49 123.07 134.97 121.92 134.97 120.73L134.97 121.28C134.92 120.66 135 120.04 135.2 119.45C135.41 118.87 135.73 118.33 136.15 117.87C136.57 117.42 137.08 117.05 137.65 116.8C138.22 116.55 138.84 116.42 139.46 116.42C140.08 116.42 140.7 116.55 141.26 116.8C141.83 117.05 142.35 117.42 142.77 117.87C143.19 118.33 143.51 118.87 143.72 119.45C143.92 120.04 144 120.66 143.95 121.28L143.95 141.23C143.95 142.42 144.42 143.57 145.27 144.41C146.12 145.25 147.26 145.73 148.46 145.73C149.65 145.73 150.8 145.25 151.64 144.41C152.49 143.57 152.96 142.42 152.96 141.23L152.96 100.73C152.96 99.54 153.44 98.39 154.28 97.54C155.13 96.7 156.27 96.22 157.47 96.22C158.66 96.22 159.81 96.7 160.65 97.54C161.5 98.39 161.97 99.54 161.97 100.73L161.97 152.91C161.92 153.53 162 154.15 162.21 154.74C162.41 155.32 162.73 155.86 163.16 156.32C163.58 156.77 164.09 157.14 164.66 157.39C165.23 157.64 165.84 157.77 166.46 157.77C167.09 157.77 167.7 157.64 168.27 157.39C168.84 157.14 169.35 156.77 169.77 156.32C170.19 155.86 170.52 155.32 170.72 154.74C170.93 154.15 171 153.53 170.96 152.91L170.96 78.87C170.95 77.68 170.47 76.54 169.63 75.7C168.78 74.86 167.64 74.39 166.45 74.39Z" fill="#08D9D6" fill-opacity="1.000000" fill-rule="nonzero"/>
</svg>
